<svg xmlns="http://www.w3.org/2000/svg" viewBox="0 0 32 32" fill="none">
  <defs>
    <radialGradient id="grad" cx="50%" cy="50%" r="50%" fx="30%" fy="30%">
      <stop offset="0%" style="stop-color:#f7d6db" />
      <stop offset="100%" style="stop-color:#c45c72" />
    </radialGradient>
  </defs>
  <path d="M16 28C16 28 4 21 4 12C4 7.58172 7.58172 4 12 4C14.6022 4 16 6 16 6C16 6 17.3978 4 20 4C24.4183 4 28 7.58172 28 12C28 21 16 28 16 28Z" fill="url(#grad)" />
  <path d="M16 26C16 26 6 20 6 12.5C6 9.46243 8.46243 7 11.5 7C13.5 7 14.5 8.5 16 9.5C17.5 8.5 18.5 7 20.5 7C23.5376 7 26 9.46243 26 12.5C26 20 16 26 16 26Z" stroke="white" stroke-opacity="0.4" stroke-width="1" />
</svg>
